<svg xmlns="http://www.w3.org/2000/svg" xmlns:xlink="http://www.w3.org/1999/xlink" version="1.1" x="0px" y="0px" viewBox="0 0 100 125" style="enable-background:new 0 0 100 100;" xml:space="preserve"><g><path d="M55.3012695,70.5117188c-2.6015625,0-4.7177734,2.137207-4.7177734,4.7641602s2.1162109,4.7641602,4.7177734,4.7641602   c2.6010742,0,4.7172852-2.137207,4.7172852-4.7641602S57.9023438,70.5117188,55.3012695,70.5117188z M55.3012695,78.0400391   c-1.4985352,0-2.7177734-1.2402344-2.7177734-2.7641602s1.2192383-2.7641602,2.7177734-2.7641602   s2.7172852,1.2402344,2.7172852,2.7641602S56.7998047,78.0400391,55.3012695,78.0400391z"/><path d="M57.3671875,30.6694336c-0.6533203-0.2055664-1.3476563-0.3095703-2.0634766-0.3095703   c-3.96875,0-7.1977539,3.2646484-7.1928711,7.3735352l0.1176758,1.1694336c0,0.0327148,0.0014648,0.074707,0.0048828,0.1074219   l2.3520508,23.7714844c0.027832,2.6015625,2.1337891,4.7094727,4.7182617,4.7094727   c2.6015625,0,4.7182617-2.1367188,4.7133789-4.6660156l2.3481445-23.8149414   c0.0009766-0.0107422,0.0019531-0.0229492,0.0029297-0.0351563l0.1274414-1.2348633   c0.003418-0.0341797,0.0053711-0.0688477,0.0053711-0.1030273c0-0.9042969-0.1640625-1.7836914-0.4829102-2.6030273   C61.2294922,32.9370117,59.4858398,31.3037109,57.3671875,30.6694336z M58.0219727,62.7285156   c0,1.5234375-1.2192383,2.7626953-2.7182617,2.7626953s-2.71875-1.2392578-2.71875-2.7626953   c0-0.0332031-0.0014648-0.0668945-0.0048828-0.1000977l-2.3515625-23.7163086c0-0.0322266-0.0014648-0.0737305-0.0048828-0.1054688   L50.105957,37.637207c0-2.9101563,2.331543-5.2773438,5.1977539-5.2773438c0.512207,0,1.0043945,0.0732422,1.4765625,0.2216797   c1.5375977,0.4599609,2.7958984,1.6401367,3.3701172,3.1674805c0.2265625,0.5830078,0.3447266,1.2016602,0.3505859,1.8393555   L58.0219727,62.7285156z"/><path d="M45.2148438,13.2075195C48.5004883,12.40625,51.8950195,12,55.3037109,12   c7.0302734,0,14.0073242,1.7592773,20.1767578,5.0874023c0.1508789,0.081543,0.3134766,0.1201172,0.4736328,0.1201172   c0.355957,0,0.7001953-0.1899414,0.8808594-0.5253906c0.262207-0.4858398,0.0810547-1.0922852-0.4052734-1.3544922   C69.9697266,11.8422852,62.6640625,10,55.3037109,10c-3.5683594,0-7.1220703,0.425293-10.5625,1.2641602   c-0.5366211,0.1308594-0.8657227,0.671875-0.7348633,1.2084961C44.1376953,13.0097656,44.6791992,13.3349609,45.2148438,13.2075195   z"/><path d="M18.3388672,29.5869141c-3.6616211,5.3422852-6.090332,11.2768555-7.2192383,17.6381836   c-0.0966797,0.5439453,0.265625,1.0629883,0.8095703,1.1591797c0.059082,0.0107422,0.1181641,0.015625,0.1757813,0.015625   c0.4760742,0,0.8974609-0.3408203,0.9833984-0.8251953c1.0791016-6.0795898,3.4003906-11.7509766,6.8999023-16.8569336   c0.3125-0.4555664,0.1962891-1.078125-0.2592773-1.3901367C19.2744141,29.0161133,18.6518555,29.1313477,18.3388672,29.5869141z"/><path d="M11.2719727,51.6196289c-0.5507813-0.0200195-1.0244141,0.3896484-1.0566406,0.9404297   c-0.0512695,0.8847656-0.0771484,1.7851563-0.0771484,2.6762695c0,0.5522461,0.4477539,1,1,1s1-0.4477539,1-1   c0-0.8525391,0.0249023-1.7138672,0.0742188-2.5600586C12.2441406,52.1245117,11.8232422,51.6518555,11.2719727,51.6196289z"/><path d="M55.3037109,20.3999023c-19.0556641,0-34.5585938,15.6113281-34.5585938,34.800293   C20.7451172,74.3886719,36.2480469,90,55.3037109,90c19.0551758,0,34.5581055-15.6113281,34.5581055-34.7998047   C89.8618164,36.0112305,74.3588867,20.3999023,55.3037109,20.3999023z M55.3037109,88   c-17.9526367,0-32.5585938-14.7138672-32.5585938-32.7998047s14.605957-32.800293,32.5585938-32.800293   s32.5581055,14.7143555,32.5581055,32.800293S73.2563477,88,55.3037109,88z"/><path d="M34.887207,44.3916016c-4.2675781,0-7.7397461,3.4941406-7.7397461,7.7885742s3.472168,7.7885742,7.7397461,7.7885742   c4.2680664,0,7.7402344-3.4941406,7.7402344-7.7885742S39.1552734,44.3916016,34.887207,44.3916016z M34.887207,57.96875   c-3.1650391,0-5.7397461-2.5966797-5.7397461-5.7885742s2.574707-5.7885742,5.7397461-5.7885742   s5.7402344,2.5966797,5.7402344,5.7885742S38.0522461,57.96875,34.887207,57.96875z"/><path d="M41.0146484,32.0483398c-2.2407227,0-4.0634766,1.8330078-4.0634766,4.0859375s1.8227539,4.0854492,4.0634766,4.0854492   s4.0639648-1.8325195,4.0639648-4.0854492S43.2553711,32.0483398,41.0146484,32.0483398z M41.0146484,38.2197266   c-1.1376953,0-2.0634766-0.9355469-2.0634766-2.0854492c0-1.1503906,0.9257813-2.0859375,2.0634766-2.0859375   c1.1381836,0,2.0639648,0.9355469,2.0639648,2.0859375C43.0786133,37.2841797,42.152832,38.2197266,41.0146484,38.2197266z"/><path d="M79.4663086,51.0380859c-3.2856445,0-5.9584961,2.6889648-5.9584961,5.9941406s2.6728516,5.9941406,5.9584961,5.9941406   c3.2851563,0,5.9580078-2.6889648,5.9580078-5.9941406S82.7514648,51.0380859,79.4663086,51.0380859z M79.4663086,61.0263672   c-2.1826172,0-3.9584961-1.7919922-3.9584961-3.9941406s1.7758789-3.9941406,3.9584961-3.9941406   s3.9580078,1.7919922,3.9580078,3.9941406S81.6489258,61.0263672,79.4663086,61.0263672z"/><path d="M77.3984375,65.6806641c-1.84375,0-3.34375,1.5078125-3.34375,3.3608398s1.5,3.3608398,3.34375,3.3608398   c1.8442383,0,3.3442383-1.5078125,3.3442383-3.3608398S79.2426758,65.6806641,77.3984375,65.6806641z M77.3984375,70.4023438   c-0.7407227,0-1.34375-0.6103516-1.34375-1.3608398s0.6030273-1.3608398,1.34375-1.3608398   c0.7412109,0,1.3442383,0.6103516,1.3442383,1.3608398S78.1396484,70.4023438,77.3984375,70.4023438z"/><path d="M25.0375977,28.3681641c0.1674805,0.2070313,0.4111328,0.3383789,0.6762695,0.3652344   c0.0336914,0.003418,0.0668945,0.0048828,0.1000977,0.0048828c0.230957,0,0.4555664-0.0800781,0.6357422-0.2280273   l13.3168945-10.9614258c1.2036133-0.9912109,1.3828125-2.7832031,0.3994141-3.9951172   c-0.4785156-0.5898438-1.1572266-0.9560547-1.9111328-1.0322266c-0.75-0.0766602-1.4892578,0.1474609-2.0756836,0.6293945   l-7.2095947,5.9349365l-2.2235107-0.8050537c-1.1049805-0.4008789-2.355957-0.1850586-3.2651367,0.5634766l-2.934082,2.4145508   c-0.4243164,0.3491211-0.4868164,0.9750977-0.140625,1.4018555l2.315918,2.8540039L25.0375977,28.3681641z M24.7514648,20.3886719   c0.3662109-0.3017578,0.8706055-0.3891602,1.3134766-0.2275391l1.1100464,0.4020386l-2.0455933,1.6838989   c-0.4262695,0.3510742-0.4873047,0.980957-0.1362305,1.4077148c0.3505859,0.4262695,0.9799805,0.487793,1.4077148,0.1362305   l11.0493164-9.0957031c0.1708984-0.140625,0.3896484-0.2006836,0.6044922-0.184082   c0.2197266,0.0224609,0.4179688,0.1298828,0.5585938,0.3032227c0.293457,0.3613281,0.2402344,0.8955078-0.1181641,1.1904297   L25.9560547,26.3261719l-1.6811523-2.0712891l-1.6899414-2.0830078L24.7514648,20.3886719z"/></g><text x="0" y="120" fill="#000000" font-size="5px" font-weight="bold" font-family="'Helvetica Neue', Helvetica, Arial-Unicode, Arial, Sans-serif"></text></svg>